<?xml version="1.0" encoding="UTF-8" standalone="no"?>
<!-- Generator: Adobe Illustrator 19.0.0, SVG Export Plug-In . SVG Version: 6.00 Build 0)  -->

<svg
   xmlns:dc="http://purl.org/dc/elements/1.1/"
   xmlns:cc="http://creativecommons.org/ns#"
   xmlns:rdf="http://www.w3.org/1999/02/22-rdf-syntax-ns#"
   xmlns:svg="http://www.w3.org/2000/svg"
   xmlns="http://www.w3.org/2000/svg"
   xmlns:sodipodi="http://sodipodi.sourceforge.net/DTD/sodipodi-0.dtd"
   xmlns:inkscape="http://www.inkscape.org/namespaces/inkscape"
   version="1.1"
   id="dark"
   inkscape:version="0.91 r13725"
   sodipodi:docname="logo.svg"
   x="0px"
   y="0px"
   viewBox="90.18 977.405 610.109 200"
   enable-background="new 90.18 977.405 610.109 200"
   xml:space="preserve"><metadata
     id="metadata95"><rdf:RDF><cc:Work
         rdf:about=""><dc:format>image/svg+xml</dc:format><dc:type
           rdf:resource="http://purl.org/dc/dcmitype/StillImage" /></cc:Work></rdf:RDF></metadata><defs
     id="defs93" /><sodipodi:namedview
     pagecolor="#ffffff"
     bordercolor="#666666"
     borderopacity="1"
     objecttolerance="10"
     gridtolerance="10"
     guidetolerance="10"
     inkscape:pageopacity="0"
     inkscape:pageshadow="2"
     inkscape:window-width="1600"
     inkscape:window-height="837"
     id="namedview91"
     showgrid="false"
     inkscape:zoom="0.94409358"
     inkscape:cx="480.48254"
     inkscape:cy="168.61664"
     inkscape:window-x="-8"
     inkscape:window-y="-8"
     inkscape:window-maximized="1"
     inkscape:current-layer="g19" /><g
     id="g3"><g
       id="g5"><path
         fill="#F6C25B"
         d="M117.073,1177.405h22.645c5.352,0,12.006-3.759,14.771-8.376l19.071-31.726    c2.255-4.651,2.173-11.427-0.397-15.712l-11.26-18.634L117.073,1177.405z"
         id="path7" /><path
         fill="#0A985C"
         d="M141.413,1085.779l-50.349,84.173c-1.944,4.148,0.079,7.453,5.069,7.453h20.94l44.829-74.448    l-20.488-33.916C144.175,1073.637,144.175,1081.172,141.413,1085.779"
         id="path9" /><path
         fill="#5586C5"
         d="M96.134,977.405c-5.38,0-7.502,3.779-4.747,8.366l81.776,135.821c2.57,4.285,2.646,11.061,0.397,15.705    l19.876-33.078l-76.349-126.813H96.134z"
         id="path11" /><path
         fill="#D9423E"
         d="M117.087,977.405l76.349,126.813l11.073-18.432c2.768-4.613,2.768-12.148,0-16.744l-50.017-83.271    c-2.769-4.586-9.423-8.366-14.774-8.366H117.087z"
         id="path13" /></g><g
       id="g15"><g
         id="g17"><g
           id="g19"
           transform="translate(-30,0)"><path
             d="m 288.271,1137.153 -32.047,0 0,-5.755 12.19,-12.257 c 3.602,-3.684 5.987,-6.298 7.163,-7.839 1.175,-1.541 2.034,-2.994 2.57,-4.35 0.54,-1.36 0.81,-2.812 0.81,-4.367 0,-2.132 -0.642,-3.814 -1.924,-5.044 -1.286,-1.226 -3.056,-1.842 -5.322,-1.842 -1.811,0 -3.561,0.335 -5.253,1.001 -1.694,0.669 -3.649,1.876 -5.871,3.622 l -4.108,-5.013 c 2.631,-2.218 5.184,-3.793 7.665,-4.719 2.478,-0.926 5.119,-1.391 7.922,-1.391 4.398,0 7.926,1.148 10.578,3.445 2.653,2.293 3.978,5.382 3.978,9.264 0,2.132 -0.386,4.159 -1.148,6.079 -0.765,1.917 -1.942,3.896 -3.527,5.932 -1.582,2.037 -4.22,4.791 -7.905,8.263 l -8.215,7.955 0,0.321 22.443,0 0,6.695 z"
             id="path21"
             inkscape:connector-curvature="0"
             style="fill:#4e4e4e" /><path
             d="m 326.076,1113.516 c 0,8.212 -1.319,14.315 -3.961,18.303 -2.642,3.988 -6.678,5.98 -12.112,5.98 -5.26,0 -9.248,-2.057 -11.965,-6.175 -2.717,-4.118 -4.074,-10.153 -4.074,-18.108 0,-8.345 1.319,-14.492 3.961,-18.449 2.642,-3.954 6.668,-5.932 12.078,-5.932 5.284,0 9.282,2.071 11.999,6.209 2.717,4.138 4.074,10.197 4.074,18.172 z m -24.415,0 c 0,6.445 0.663,11.048 1.989,13.805 1.326,2.761 3.445,4.142 6.353,4.142 2.911,0 5.041,-1.401 6.387,-4.207 1.347,-2.802 2.02,-7.381 2.02,-13.74 0,-6.339 -0.673,-10.925 -2.02,-13.761 -1.347,-2.833 -3.476,-4.251 -6.387,-4.251 -2.908,0 -5.027,1.391 -6.353,4.172 -1.326,2.782 -1.989,7.395 -1.989,13.84 z"
             id="path23"
             inkscape:connector-curvature="0"
             style="fill:#4e4e4e" /><path
             d="m 354.148,1137.153 -7.6,0 0,-30.526 c 0,-3.643 0.085,-6.53 0.26,-8.666 -0.496,0.519 -1.107,1.09 -1.828,1.715 -0.722,0.625 -3.141,2.607 -7.259,5.949 l -3.817,-4.818 13.906,-10.928 6.339,0 0,47.274 z"
             id="path25"
             inkscape:connector-curvature="0"
             style="fill:#4e4e4e" /><path
             d="m 385.679,1107.632 c 4.765,0 8.537,1.261 11.32,3.783 2.781,2.522 4.173,5.96 4.173,10.313 0,5.044 -1.579,8.984 -4.74,11.82 -3.157,2.837 -7.645,4.251 -13.468,4.251 -5.28,0 -9.432,-0.851 -12.45,-2.552 l 0,-6.889 c 1.746,0.99 3.752,1.756 6.014,2.296 2.266,0.54 4.368,0.81 6.306,0.81 3.428,0 6.038,-0.765 7.826,-2.296 1.791,-1.531 2.686,-3.773 2.686,-6.729 0,-5.645 -3.602,-8.471 -10.803,-8.471 -1.011,0 -2.262,0.103 -3.749,0.308 -1.49,0.205 -2.792,0.437 -3.913,0.697 l -3.397,-2.006 1.811,-23.087 24.58,0 0,6.756 -17.884,0 -1.069,11.707 c 0.755,-0.13 1.678,-0.28 2.765,-0.454 1.087,-0.172 2.42,-0.257 3.992,-0.257 z"
             id="path27"
             inkscape:connector-curvature="0"
             style="fill:#4e4e4e" /><text
             xml:space="preserve"
             style="font-style:normal;font-variant:normal;font-weight:normal;font-stretch:normal;font-size:66.25px;line-height:129.99999523%;font-family:sans-serif;-inkscape-font-specification:'sans-serif, Normal';text-align:start;letter-spacing:0px;word-spacing:0px;writing-mode:lr-tb;text-anchor:start;fill:#4e4e4e;fill-opacity:1;stroke:none;stroke-width:1px;stroke-linecap:butt;stroke-linejoin:miter;stroke-opacity:1"
             x="440.87918"
             y="1138.3325"
             id="text3427"
             sodipodi:linespacing="130%"><tspan
               sodipodi:role="line"
               id="tspan3429"
               x="440.87918"
               y="1138.3325">Portugal</tspan></text>
</g><g
           id="g73"
           transform="translate(-30,0)"><g
             id="g75"><path
               d="m 273.274,1035.265 23.072,0 0,28.81 c -6.267,2.143 -13.157,3.219 -20.659,3.219 -8.24,0 -14.611,-2.389 -19.105,-7.17 -4.497,-4.774 -6.746,-11.588 -6.746,-20.435 0,-8.635 2.461,-15.344 7.385,-20.148 4.928,-4.801 11.825,-7.207 20.697,-7.207 3.367,0 6.539,0.321 9.528,0.953 2.977,0.633 5.585,1.439 7.81,2.409 l -4.573,11.332 c -3.848,-1.893 -8.086,-2.843 -12.686,-2.843 -4.218,0 -7.478,1.37 -9.782,4.115 -2.31,2.734 -3.461,6.653 -3.461,11.755 0,4.996 1.045,8.803 3.13,11.42 2.082,2.625 5.085,3.933 9.013,3.933 2.15,0 4.125,-0.201 5.929,-0.622 l 0,-8.372 -9.548,0 0,-11.151 -0.004,0 z"
               id="path77"
               inkscape:connector-curvature="0"
               style="fill:#4e4e4e" /></g><g
             id="g79"><path
               d="m 348.134,1038.7 c 0,8.926 -2.461,15.798 -7.372,20.626 -4.912,4.825 -11.812,7.241 -20.714,7.241 l -17.297,0 0,-53.463 18.503,0 c 8.582,0 15.208,2.194 19.877,6.585 4.665,4.388 7.003,10.72 7.003,19.011 z m -14.991,0.516 c 0,-4.904 -0.974,-8.536 -2.911,-10.891 -1.938,-2.375 -4.877,-3.55 -8.828,-3.55 l -4.211,0 0,29.942 3.219,0 c 4.389,0 7.604,-1.271 9.655,-3.82 2.051,-2.544 3.076,-6.443 3.076,-11.681 z"
               id="path81"
               inkscape:connector-curvature="0"
               style="fill:#4e4e4e" /></g><g
             id="g83"><path
               d="m 374.688,1035.265 23.073,0 0,28.81 c -6.268,2.143 -13.148,3.219 -20.66,3.219 -8.244,0 -14.611,-2.389 -19.108,-7.17 -4.49,-4.774 -6.747,-11.588 -6.747,-20.435 0,-8.635 2.465,-15.344 7.393,-20.148 4.924,-4.801 11.821,-7.207 20.7,-7.207 3.352,0 6.534,0.321 9.521,0.953 2.983,0.633 5.587,1.439 7.809,2.409 l -4.573,11.332 c -3.851,-1.893 -8.083,-2.843 -12.692,-2.843 -4.214,0 -7.471,1.37 -9.774,4.115 -2.304,2.734 -3.456,6.653 -3.456,11.755 0,4.996 1.039,8.803 3.123,11.42 2.082,2.625 5.089,3.933 9.016,3.933 2.143,0 4.118,-0.201 5.919,-0.622 l 0,-8.372 -9.546,0 0,-11.149 z"
               id="path85"
               inkscape:connector-curvature="0"
               style="fill:#4e4e4e" /></g></g><text
           xml:space="preserve"
           style="font-style:normal;font-variant:normal;font-weight:bold;font-stretch:normal;font-size:70px;line-height:125%;font-family:sans-serif;-inkscape-font-specification:'sans-serif, Bold';text-align:start;letter-spacing:0px;word-spacing:0px;writing-mode:lr-tb;text-anchor:start;fill:#4e4e4e;fill-opacity:1;stroke:none;stroke-width:1px;stroke-linecap:butt;stroke-linejoin:miter;stroke-opacity:1"
           x="390.6557"
           y="1064.0688"
           id="text3423"
           sodipodi:linespacing="125%"><tspan
             sodipodi:role="line"
             id="tspan3425"
             x="390.6557"
             y="1064.0688">Summit</tspan></text>
</g></g></g><path
     fill="#168B58"
     d="M141.413,1085.779l-12.032,20.115l21.535,15.307l10.985-18.243l-20.488-33.916  C144.175,1073.637,144.175,1081.172,141.413,1085.779z"
     id="path87" /><path
     fill="#D7AB56"
     d="M161.902,1102.957l-10.985,18.243l22.646,16.096c2.252-4.651,2.169-11.422-0.4-15.705L161.902,1102.957z"
     id="path89" /></svg>