<?xml version="1.0" encoding="UTF-8" standalone="no"?>
<!-- Generator: Adobe Illustrator 19.0.0, SVG Export Plug-In . SVG Version: 6.00 Build 0)  -->

<svg
   xmlns:dc="http://purl.org/dc/elements/1.1/"
   xmlns:cc="http://creativecommons.org/ns#"
   xmlns:rdf="http://www.w3.org/1999/02/22-rdf-syntax-ns#"
   xmlns:svg="http://www.w3.org/2000/svg"
   xmlns="http://www.w3.org/2000/svg"
   xmlns:sodipodi="http://sodipodi.sourceforge.net/DTD/sodipodi-0.dtd"
   xmlns:inkscape="http://www.inkscape.org/namespaces/inkscape"
   version="1.1"
   id="dark"
   inkscape:version="0.91 r13725"
   sodipodi:docname="logo-summit.svg"
   x="0px"
   y="0px"
   viewBox="90.18 977.405 610.109 200"
   enable-background="new 90.18 977.405 610.109 200"
   xml:space="preserve"><metadata
     id="metadata95"><rdf:RDF><cc:Work
         rdf:about=""><dc:format>image/svg+xml</dc:format><dc:type
           rdf:resource="http://purl.org/dc/dcmitype/StillImage" /><dc:title></dc:title></cc:Work></rdf:RDF></metadata><defs
     id="defs93" /><sodipodi:namedview
     pagecolor="#ffffff"
     bordercolor="#666666"
     borderopacity="1"
     objecttolerance="10"
     gridtolerance="10"
     guidetolerance="10"
     inkscape:pageopacity="0"
     inkscape:pageshadow="2"
     inkscape:window-width="1600"
     inkscape:window-height="837"
     id="namedview91"
     showgrid="false"
     inkscape:zoom="0.94409358"
     inkscape:cx="436.82657"
     inkscape:cy="40.149893"
     inkscape:window-x="-8"
     inkscape:window-y="-8"
     inkscape:window-maximized="1"
     inkscape:current-layer="g73" /><g
     id="g3"><g
       id="g5"><path
         fill="#F6C25B"
         d="M117.073,1177.405h22.645c5.352,0,12.006-3.759,14.771-8.376l19.071-31.726    c2.255-4.651,2.173-11.427-0.397-15.712l-11.26-18.634L117.073,1177.405z"
         id="path7" /><path
         fill="#0A985C"
         d="M141.413,1085.779l-50.349,84.173c-1.944,4.148,0.079,7.453,5.069,7.453h20.94l44.829-74.448    l-20.488-33.916C144.175,1073.637,144.175,1081.172,141.413,1085.779"
         id="path9" /><path
         fill="#5586C5"
         d="M96.134,977.405c-5.38,0-7.502,3.779-4.747,8.366l81.776,135.821c2.57,4.285,2.646,11.061,0.397,15.705    l19.876-33.078l-76.349-126.813H96.134z"
         id="path11" /><path
         fill="#D9423E"
         d="M117.087,977.405l76.349,126.813l11.073-18.432c2.768-4.613,2.768-12.148,0-16.744l-50.017-83.271    c-2.769-4.586-9.423-8.366-14.774-8.366H117.087z"
         id="path13" /></g><g
       id="g15"><g
         id="g17"><g
           id="g73"><g
             id="g75"><path
               fill="#4E4E4E"
               d="M273.274,1035.265h23.072v28.81c-6.267,2.143-13.157,3.219-20.659,3.219       c-8.24,0-14.611-2.389-19.105-7.17c-4.497-4.774-6.746-11.588-6.746-20.435c0-8.635,2.461-15.344,7.385-20.148       c4.928-4.801,11.825-7.207,20.697-7.207c3.367,0,6.539,0.321,9.528,0.953c2.977,0.633,5.585,1.439,7.81,2.409l-4.573,11.332       c-3.848-1.893-8.086-2.843-12.686-2.843c-4.218,0-7.478,1.37-9.782,4.115c-2.31,2.734-3.461,6.653-3.461,11.755       c0,4.996,1.045,8.803,3.13,11.42c2.082,2.625,5.085,3.933,9.013,3.933c2.15,0,4.125-0.201,5.929-0.622v-8.372h-9.548v-11.151       H273.274z"
               id="path77" /></g><g
             id="g79"><path
               fill="#4E4E4E"
               d="M348.134,1038.7c0,8.926-2.461,15.798-7.372,20.626c-4.912,4.825-11.812,7.241-20.714,7.241h-17.297       v-53.463h18.503c8.582,0,15.208,2.194,19.877,6.585C345.796,1024.077,348.134,1030.409,348.134,1038.7z M333.143,1039.216       c0-4.904-0.974-8.536-2.911-10.891c-1.938-2.375-4.877-3.55-8.828-3.55h-4.211v29.942h3.219c4.389,0,7.604-1.271,9.655-3.82       C332.118,1048.353,333.143,1044.454,333.143,1039.216z"
               id="path81" /></g><g
             id="g83"><path
               fill="#4E4E4E"
               d="M374.688,1035.265h23.073v28.81c-6.268,2.143-13.148,3.219-20.66,3.219       c-8.244,0-14.611-2.389-19.108-7.17c-4.49-4.774-6.747-11.588-6.747-20.435c0-8.635,2.465-15.344,7.393-20.148       c4.924-4.801,11.821-7.207,20.7-7.207c3.352,0,6.534,0.321,9.521,0.953c2.983,0.633,5.587,1.439,7.809,2.409l-4.573,11.332       c-3.851-1.893-8.083-2.843-12.692-2.843c-4.214,0-7.471,1.37-9.774,4.115c-2.304,2.734-3.456,6.653-3.456,11.755       c0,4.996,1.039,8.803,3.123,11.42c2.082,2.625,5.089,3.933,9.016,3.933c2.143,0,4.118-0.201,5.919-0.622v-8.372h-9.546       V1035.265z"
               id="path85" /></g></g><text
           xml:space="preserve"
           style="font-style:normal;font-variant:normal;font-weight:normal;font-stretch:normal;font-size:70px;line-height:125%;font-family:'Open Sans';-inkscape-font-specification:'Open Sans';letter-spacing:0px;word-spacing:0px;fill:#4e4e4e;fill-opacity:1;stroke:none;stroke-width:1px;stroke-linecap:butt;stroke-linejoin:miter;stroke-opacity:1;"
           x="418.23303"
           y="1063.5602"
           id="text3437"
           sodipodi:linespacing="125%"><tspan
             sodipodi:role="line"
             id="tspan3439"
             x="418.23303"
             y="1063.5602">Portugal</tspan></text>
<text
           xml:space="preserve"
           style="font-style:normal;font-variant:normal;font-weight:normal;font-stretch:normal;font-size:70px;line-height:300%;font-family:'Open Sans';-inkscape-font-specification:'Open Sans, Normal';letter-spacing:0px;word-spacing:0px;fill:#4e4e4e;fill-opacity:1;stroke:none;stroke-width:1px;stroke-linecap:butt;stroke-linejoin:miter;stroke-opacity:1;text-anchor:start;text-align:start;writing-mode:lr;"
           x="243.25912"
           y="1149.1519"
           id="text3437-8"
           sodipodi:linespacing="300%"><tspan
             sodipodi:role="line"
             id="tspan3439-3"
             x="243.25912"
             y="1149.1519">Summit  2015</tspan></text>
</g></g></g><path
     fill="#168B58"
     d="M141.413,1085.779l-12.032,20.115l21.535,15.307l10.985-18.243l-20.488-33.916  C144.175,1073.637,144.175,1081.172,141.413,1085.779z"
     id="path87" /><path
     fill="#D7AB56"
     d="M161.902,1102.957l-10.985,18.243l22.646,16.096c2.252-4.651,2.169-11.422-0.4-15.705L161.902,1102.957z"
     id="path89" /></svg>